<svg xmlns="http://www.w3.org/2000/svg" width="54" height="54" viewBox="0 0 64 64">
  <path id="display" d="M0,12.24S0,2,8,2H56s8,0,8,10.24V42.96S64,53.2,56,53.2H40a22.262,22.262,0,0,0,1,7.68h3A2.638,2.638,0,0,1,44,66H20a2.638,2.638,0,0,1,0-5.12h3a22.262,22.262,0,0,0,1-7.68H8s-8,0-8-10.24ZM5.592,7.862A3.8,3.8,0,0,0,4.576,9.409,9.193,9.193,0,0,0,4,12.291V42.96a6.523,6.523,0,0,0,.58,3.082,3.366,3.366,0,0,0,1.208,1.3,4.889,4.889,0,0,0,2.152.732l.1.005H56a3.51,3.51,0,0,0,2.408-.742,3.8,3.8,0,0,0,1.016-1.546A9.2,9.2,0,0,0,60,43.037l0-.128V12.24a6.523,6.523,0,0,0-.58-3.082,3.362,3.362,0,0,0-1.208-1.3A4.857,4.857,0,0,0,55.96,7.12H8A3.51,3.51,0,0,0,5.592,7.862Z" transform="translate(0 -2)" fill="#007ced"/>
</svg>
