<svg xmlns="http://www.w3.org/2000/svg" width="54" height="54" viewBox="0 0 64 64">
  <g id="pencil-ruler-2-line_1_" data-name="pencil-ruler-2-line (1)" transform="translate(0)">
    <path id="Path_12" data-name="Path 12" d="M64,0H0V64H64Z" transform="translate(0)" fill="none"/>
    <path id="Path_13" data-name="Path 13" d="M45.238,36.869l6.275,6.281-8.37,8.371L9.658,18.032l8.37-8.368,6.284,6.275-4.188,4.185,4.188,4.191L28.5,20.128l4.185,4.188L28.5,28.5l4.185,4.185L36.868,28.5l4.188,4.185-4.188,4.185,4.188,4.188,4.182-4.194ZM15.936,3.384,3.38,15.94a2.96,2.96,0,0,0,0,4.185L41.053,57.8a2.96,2.96,0,0,0,4.185,0L57.794,45.242a2.96,2.96,0,0,0,0-4.185L20.121,3.384A2.96,2.96,0,0,0,15.936,3.384Zm8.376,46.041-4.188-4.185-6.636,6.639H9.3V47.693l6.636-6.639-4.185-4.185-7.805,7.8V57.23H16.5l7.805-7.805ZM49.424,24.31,57.8,15.94a2.96,2.96,0,0,0,0-4.188L49.424,3.381a2.96,2.96,0,0,0-4.185,0l-8.376,8.371,4.191,4.188,6.278-6.281,4.185,4.188-6.278,6.275,4.185,4.188Z" transform="translate(1.412 1.41)" fill="#007ced"/>
  </g>
</svg>
