<svg xmlns="http://www.w3.org/2000/svg" width="54" height="54" viewBox="0 0 64 64">
  <path id="shop" d="M11.88,2.493A3.9,3.9,0,0,1,14.92,1H49.08a3.9,3.9,0,0,1,3.04,1.494L62.556,15.481A6.658,6.658,0,0,1,64,19.645v1.088a10.108,10.108,0,0,1-6.418,9.586A9.151,9.151,0,0,1,47,26.954a9.145,9.145,0,0,1-15,0,9.145,9.145,0,0,1-15,0A9.151,9.151,0,0,1,6.417,30.319,10.108,10.108,0,0,1,0,20.733V19.645a6.658,6.658,0,0,1,1.444-4.164L11.884,2.489ZM19,20.733A5.692,5.692,0,0,0,24.5,26.6,5.692,5.692,0,0,0,30,20.733a2,2,0,1,1,4,0,5.511,5.511,0,1,0,11,0,2,2,0,1,1,4,0,5.511,5.511,0,1,0,11,0V19.645a2.22,2.22,0,0,0-.48-1.387L49.08,5.267H14.92L4.48,18.259A2.22,2.22,0,0,0,4,19.645v1.088A5.692,5.692,0,0,0,9.5,26.6,5.692,5.692,0,0,0,15,20.733a2,2,0,1,1,4,0ZM6,33a2.07,2.07,0,0,1,2,2.133v25.6h4V39.4a4.14,4.14,0,0,1,4-4.267H28A4.14,4.14,0,0,1,32,39.4V60.733H56v-25.6a2,2,0,1,1,4,0v25.6h2A2.138,2.138,0,0,1,62,65H2a2.138,2.138,0,0,1,0-4.267H4v-25.6A2.07,2.07,0,0,1,6,33ZM16,60.733H28V39.4H16ZM36,39.4a4.14,4.14,0,0,1,4-4.267h8A4.14,4.14,0,0,1,52,39.4V52.2a4.14,4.14,0,0,1-4,4.267H40A4.14,4.14,0,0,1,36,52.2Zm12,0H40V52.2h8Z" transform="translate(0 -1)" fill="#007ced"/>
</svg>
